# xmcd
#
# Track frame offsets:
#	150
#	11503
#	22374
#	33135
#	46639
#	63780
#	76723
#	92707
#	109575
#	123711
#
# Disc length: 1763
#
# Revision: 4
# Processed by: cddbd v1.5.1PL0 Copyright (c) Steve Scherf et al.
# Submitted via: tcd 2.0b
# Normalized: r2:DSETVAR1,TDELIM( - );r3:TSWAP
#
DISCID=6e06e10a
DTITLE=Various Artist - Long-Haul Laffs 2
DYEAR=1900
DGENRE=
TTITLE0=Moe Bandy and Joe Stampley - We May Be Lost But We're Making Good Time
TTITLE1=Sheb Wooley - Mother Tuckers Double Clutcher's Trucker Line
TTITLE2=Bobby Bare - There's An 18-Wheeler
TTITLE3=Del Reeves - Bertha The Bull Hauler
TTITLE4=Sheb Wooley - Trucker's Lament: I Just Don't Look Good Naked Anymore
TTITLE5=Jethro and Bodine - Bad Gas
TTITLE6=Bobby Bare - Momma Take The Road Off Me
TTITLE7=Joe Sun - 13 Tons Of Ice Cream Bars
TTITLE8=Del Reeves - Marry For Money
TTITLE9=Will Jones and The Western Fringe - Airbag
EXTD=
EXTT0=
EXTT1=
EXTT2=
EXTT3=
EXTT4=
EXTT5=
EXTT6=
EXTT7=
EXTT8=
EXTT9=
PLAYORDER=
